<svg xmlns="http://www.w3.org/2000/svg" width="1em" height="1em" viewBox="0 0 24 24">
	<path fill="#ddf0ff" d="M12 5.52L6 10.1V19h12v-8.9zM8 15c-.55 0-1-.45-1-1s.45-1 1-1s1 .45 1 1s-.45 1-1 1m4 0c-.55 0-1-.45-1-1s.45-1 1-1s1 .45 1 1s-.45 1-1 1m4 0c-.55 0-1-.45-1-1s.45-1 1-1s1 .45 1 1s-.45 1-1 1" opacity="0.3" />
	<path fill="#ddf0ff" d="M12 3L1 11.4l1.21 1.59L4 11.62V21h16v-9.38l1.79 1.36L23 11.4zm6 16H6v-8.9l6-4.58l6 4.58zm-9-5c0 .55-.45 1-1 1s-1-.45-1-1s.45-1 1-1s1 .45 1 1m3-1c.55 0 1 .45 1 1s-.45 1-1 1s-1-.45-1-1s.45-1 1-1m3 1c0-.55.45-1 1-1s1 .45 1 1s-.45 1-1 1s-1-.45-1-1" />
    <style>
        path { fill: #000; }
        @media (prefers-color-scheme: dark) {
            path { fill: #ddf0ff; }
        }
    </style>
</svg>
